# xmcd
#
# Track frame offsets: 
#        150
#        28499
#        61072
#        89834
#        136872
#        174838
#        211844
#        240067
#        268488
#
# Disc length: 4086 seconds
#
# Revision: 5
# Processed by: cddbd v1.5.2PL0 Copyright (c) Steve Scherf et al.
# Submitted via: ExactAudioCopy v0.99pb5
#
DISCID=790ff409
DTITLE=Gary Burton - Rarum IV (1973-1986) (comp) (2002)
DYEAR=2002
DGENRE=ECM
TTITLE0=Four Or Less
TTITLE1=The Colours Of Chloe
TTITLE2=Dreams So Real
TTITLE3=Ictus-Syndrome-Wrong Key Donkey
TTITLE4=B and G (Midwestern Night Dream)
TTITLE5=Duke Elligton's Sound Of Love
TTITLE6=Syndrome 
TTITLE7=Ladies In Mercedes
TTITLE8=La Divetta
EXTD=All in Ludwigsburg, Germany, except\n1: Fayville, Mass.\n5: Oslo\n
EXTD=6: New York YEAR: 2003
EXTT0=The New Quartet
EXTT1=The Gary Burton Quintet
EXTT2=Gary Burton Quintet
EXTT3=Gary Burton Quintet
EXTT4=Gary Burton Quartet
EXTT5=Gary Burton Quartet
EXTT6=Gary Burton Quartet
EXTT7=Gary Burton Quartet
EXTT8=Gary Burton Quintet
PLAYORDER=
